<svg xmlns="http://www.w3.org/2000/svg" version="1.1" xmlns:xlink="http://www.w3.org/1999/xlink" xmlns:svgjs="http://svgjs.dev/svgjs" width="1000" height="1000"><g clip-path="url(#SvgjsClipPath1078)"><rect width="1000" height="1000" fill="#000000"></rect><g transform="matrix(4.861111111111111,0,0,4.861111111111111,150,150)"><svg xmlns="http://www.w3.org/2000/svg" version="1.1" xmlns:xlink="http://www.w3.org/1999/xlink" xmlns:svgjs="http://svgjs.dev/svgjs" width="144" height="144"><svg width="144" height="144" viewBox="0 0 144 144" fill="none" xmlns="http://www.w3.org/2000/svg">
<rect width="144" height="144" fill="black"></rect>
<path d="M94.6875 36.4375C96.3958 36.4375 97.6042 36.75 98.3125 37.375C99.0208 38 99.375 39.0417 99.375 40.5V58.625C99.375 60.0833 99.0208 61.125 98.3125 61.75C97.6042 62.375 96.3958 62.6875 94.6875 62.6875C92.9792 62.6875 91.7708 62.375 91.0625 61.75C90.3542 61.125 90 60.0833 90 58.625C90 56.125 89.3125 53.8958 87.9375 51.9375C86.6042 49.9792 84.625 48.4583 82 47.375C79.375 46.25 76.25 45.6875 72.625 45.6875C68 45.6875 63.8958 46.875 60.3125 49.25C56.7708 51.625 54 55.0208 52 59.4375C50 63.8542 49 69.0208 49 74.9375C49 80.8542 49.9375 86.0208 51.8125 90.4375C53.7292 94.8125 56.4167 98.1875 59.875 100.562C63.375 102.938 67.4167 104.125 72 104.125C79.2917 104.125 85.5208 102.938 90.6875 100.562V86.375H75.25C73.8333 86.375 72.8125 86.0625 72.1875 85.4375C71.6042 84.7708 71.3125 83.6667 71.3125 82.125C71.3125 80.5833 71.6042 79.5 72.1875 78.875C72.8125 78.2083 73.8333 77.875 75.25 77.875H102.062C103.479 77.875 104.479 78.2083 105.062 78.875C105.688 79.5 106 80.5833 106 82.125C106 83.6667 105.688 84.7708 105.062 85.4375C104.479 86.0625 103.479 86.375 102.062 86.375H100.062V103.062C100.062 105.104 99.3125 106.542 97.8125 107.375C94.3958 109.333 90.4583 110.833 86 111.875C81.5417 112.875 76.875 113.375 72 113.375C65.5 113.375 59.75 111.792 54.75 108.625C49.7917 105.417 45.9375 100.917 43.1875 95.125C40.4792 89.2917 39.125 82.5625 39.125 74.9375C39.125 67.3542 40.5208 60.6458 43.3125 54.8125C46.1458 48.9792 50.0417 44.4583 55 41.25C60 38.0417 65.6667 36.4375 72 36.4375C75.9167 36.4375 79.375 37.0625 82.375 38.3125C85.4167 39.5208 87.9583 41.2708 90 43.5625V40.5C90 39.0417 90.3542 38 91.0625 37.375C91.7708 36.75 92.9792 36.4375 94.6875 36.4375Z" fill="#02CC02"></path>
</svg></svg></g></g><defs><clipPath id="SvgjsClipPath1078"><rect width="1000" height="1000" x="0" y="0" rx="100" ry="100"></rect></clipPath></defs></svg>